<svg width="1446" height="459" viewBox="0 0 1446 459" fill="none" xmlns="http://www.w3.org/2000/svg">
<path d="M1445.73 356.371V458.629L0 459V83.2563L26.8017 75.2724L85.1624 57.8895C90.0062 56.4497 94.986 55.8132 99.9287 55.9491C106.286 56.1283 112.582 57.5929 118.408 60.2871C118.804 60.4663 119.199 60.6579 119.594 60.8494C119.601 60.8556 119.607 60.8556 119.619 60.8618C120.206 61.1522 120.787 61.4612 121.361 61.7825C121.874 62.0606 122.381 62.351 122.881 62.6538C123.159 62.8207 123.437 62.9875 123.715 63.1667C123.857 63.2533 124.006 63.3459 124.148 63.4386L135.541 70.7737L138.704 72.8067L139.649 73.4185L190.25 105.984L190.386 106.077L190.639 106.238L195.502 109.371L199.048 111.651C199.326 111.83 199.61 112.009 199.888 112.189C200.08 112.312 200.277 112.436 200.469 112.559C200.969 112.875 201.47 113.19 201.97 113.499C202.187 113.635 202.397 113.764 202.613 113.894C212.696 120.098 223.205 125.376 234.024 129.714C234.215 129.788 234.401 129.868 234.592 129.936C236.285 130.616 237.99 131.265 239.702 131.889C239.905 131.969 240.103 132.043 240.307 132.117C240.659 132.241 241.018 132.371 241.37 132.494C268.369 142.141 297.049 146.052 325.556 144.025H325.562C332.241 143.55 338.907 142.752 345.543 141.622C358.635 139.397 371.603 135.893 384.25 131.092L717.714 4.51724C731.708 -0.797116 747.228 -0.383099 760.913 5.66662L823.667 33.4002L848.794 44.4985H848.801L909.96 71.5276C924.924 78.1396 942.248 76.5268 955.736 67.2576C963.656 61.8134 972.979 58.9585 982.451 58.9585C985.441 58.9585 988.45 59.2428 991.428 59.8237L1011.54 63.7291L1079.95 77.0026C1119.33 84.6467 1160.04 80.7968 1197.22 65.9784C1198.95 65.2925 1200.66 64.588 1202.36 63.8527L1219.32 56.5671L1220.48 56.0665L1223.8 54.6452L1301.56 21.2451C1320.1 13.2859 1388.82 15.9617 1402.34 30.9346L1445.73 43.3553V356.377L1445.73 356.371Z" fill="#424892"/>
</svg>
