<svg width="1446" height="964" viewBox="0 0 1446 964" fill="none" xmlns="http://www.w3.org/2000/svg">
<path d="M1445.73 0V726.17V964H0V0H1445.73Z" fill="url(#paint0_linear_459_596)"/>
<path d="M722.867 951.313C982.014 951.313 1192.09 741.195 1192.09 482C1192.09 222.805 982.014 12.6865 722.867 12.6865C463.72 12.6865 253.64 222.805 253.64 482C253.64 741.195 463.72 951.313 722.867 951.313Z" fill="url(#paint1_radial_459_596)"/>
<g opacity="0.7">
<path d="M64.1931 87.2543C64.1931 89.3368 62.5064 91.0238 60.4243 91.0238C58.3422 91.0238 56.6555 89.3368 56.6555 87.2543C56.6555 85.1719 58.3422 83.4849 60.4243 83.4849C62.5064 83.4849 64.1931 85.1719 64.1931 87.2543Z" fill="white"/>
<path d="M243.711 5.01774C243.711 6.05589 242.865 6.90248 241.827 6.90248C240.789 6.90248 239.943 6.05589 239.943 5.01774C239.943 3.97959 240.789 3.133 241.827 3.133C242.865 3.133 243.711 3.97959 243.711 5.01774Z" fill="white"/>
<path d="M300.948 130.443C300.948 131.481 300.101 132.328 299.063 132.328C298.025 132.328 297.179 131.481 297.179 130.443C297.179 129.405 298.025 128.558 299.063 128.558C300.101 128.558 300.948 129.405 300.948 130.443Z" fill="white"/>
<path d="M165.475 120.265C165.475 121.303 164.628 122.15 163.59 122.15C162.552 122.15 161.706 121.303 161.706 120.265C161.706 119.227 162.552 118.38 163.59 118.38C164.628 118.38 165.475 119.227 165.475 120.265Z" fill="white"/>
<path d="M189.496 184.587C189.496 185.626 188.65 186.472 187.612 186.472C186.574 186.472 185.727 185.626 185.727 184.587C185.727 183.549 186.574 182.703 187.612 182.703C188.65 182.703 189.496 183.549 189.496 184.587Z" fill="white"/>
<path d="M202.082 143.488C202.658 143.488 203.126 143.02 203.126 142.443C203.126 141.867 202.658 141.399 202.082 141.399C201.505 141.399 201.037 141.867 201.037 142.443C201.037 143.02 201.505 143.488 202.082 143.488Z" fill="white"/>
<path d="M259.441 108.753C260.018 108.753 260.485 108.285 260.485 107.708C260.485 107.132 260.018 106.664 259.441 106.664C258.865 106.664 258.397 107.132 258.397 107.708C258.397 108.285 258.865 108.753 259.441 108.753Z" fill="white"/>
<path d="M368.106 27.715C368.683 27.715 369.15 27.2474 369.15 26.6707C369.15 26.0939 368.683 25.6263 368.106 25.6263C367.529 25.6263 367.062 26.0939 367.062 26.6707C367.062 27.2474 367.529 27.715 368.106 27.715Z" fill="white"/>
<path d="M235.723 132.031C236.299 132.031 236.767 131.563 236.767 130.987C236.767 130.41 236.299 129.942 235.723 129.942C235.146 129.942 234.679 130.41 234.679 130.987C234.679 131.563 235.146 132.031 235.723 132.031Z" fill="white"/>
<path d="M253.467 176.511C254.044 176.511 254.511 176.043 254.511 175.467C254.511 174.89 254.044 174.422 253.467 174.422C252.89 174.422 252.423 174.89 252.423 175.467C252.423 176.043 252.89 176.511 253.467 176.511Z" fill="white"/>
<path d="M322.51 176.251C323.087 176.251 323.554 175.784 323.554 175.207C323.554 174.63 323.087 174.163 322.51 174.163C321.933 174.163 321.466 174.63 321.466 175.207C321.466 175.784 321.933 176.251 322.51 176.251Z" fill="white"/>
<path d="M222.705 150.038C223.282 150.038 223.749 149.57 223.749 148.994C223.749 148.417 223.282 147.949 222.705 147.949C222.128 147.949 221.661 148.417 221.661 148.994C221.661 149.57 222.128 150.038 222.705 150.038Z" fill="white"/>
<path d="M224.175 118.751C224.744 118.862 225.108 119.412 224.997 119.981C224.886 120.549 224.336 120.914 223.768 120.803C223.199 120.692 222.835 120.142 222.946 119.573C223.057 119.005 223.607 118.64 224.175 118.751Z" fill="white"/>
<path d="M160.217 31.7193C160.794 31.7193 161.261 31.2517 161.261 30.675C161.261 30.0982 160.794 29.6306 160.217 29.6306C159.64 29.6306 159.173 30.0982 159.173 30.675C159.173 31.2517 159.64 31.7193 160.217 31.7193Z" fill="white"/>
<path d="M227.153 56.635C227.73 56.635 228.197 56.1674 228.197 55.5907C228.197 55.0139 227.73 54.5463 227.153 54.5463C226.577 54.5463 226.109 55.0139 226.109 55.5907C226.109 56.1674 226.577 56.635 227.153 56.635Z" fill="white"/>
<path d="M86.7194 51.1662C87.296 51.1662 87.7635 50.6986 87.7635 50.1218C87.7635 49.545 87.296 49.0775 86.7194 49.0775C86.1427 49.0775 85.6752 49.545 85.6752 50.1218C85.6752 50.6986 86.1427 51.1662 86.7194 51.1662Z" fill="white"/>
<path d="M114.726 189.018C115.767 189.018 116.61 188.174 116.61 187.133C116.61 186.092 115.767 185.249 114.726 185.249C113.685 185.249 112.841 186.092 112.841 187.133C112.841 188.174 113.685 189.018 114.726 189.018Z" fill="white"/>
<path d="M441.666 90.616C442.242 90.616 442.71 90.1484 442.71 89.5716C442.71 88.9949 442.242 88.5273 441.666 88.5273C441.089 88.5273 440.622 88.9949 440.622 89.5716C440.622 90.1484 441.089 90.616 441.666 90.616Z" fill="white"/>
<path d="M449.549 37.0213C449.549 38.0595 448.703 38.9061 447.665 38.9061C446.627 38.9061 445.781 38.0595 445.781 37.0213C445.781 35.9832 446.627 35.1366 447.665 35.1366C448.703 35.1366 449.549 35.9832 449.549 37.0213Z" fill="white"/>
<path d="M731.202 79.9131C731.202 81.9956 729.515 83.6826 727.433 83.6826C725.351 83.6826 723.664 81.9956 723.664 79.9131C723.664 77.8307 725.351 76.1436 727.433 76.1436C729.515 76.1436 731.202 77.8307 731.202 79.9131Z" fill="white"/>
<path d="M380.655 153.548C380.655 154.586 379.808 155.433 378.77 155.433C377.732 155.433 376.886 154.586 376.886 153.548C376.886 152.51 377.732 151.663 378.77 151.663C379.808 151.663 380.655 152.51 380.655 153.548Z" fill="white"/>
<path d="M567.556 54.089C568.597 54.089 569.44 53.2452 569.44 52.2043C569.44 51.1634 568.597 50.3195 567.556 50.3195C566.515 50.3195 565.671 51.1634 565.671 52.2043C565.671 53.2452 566.515 54.089 567.556 54.089Z" fill="white"/>
<path d="M743.614 51.1167C744.191 51.1167 744.658 50.6492 744.658 50.0724C744.658 49.4956 744.191 49.028 743.614 49.028C743.038 49.028 742.57 49.4956 742.57 50.0724C742.57 50.6492 743.038 51.1167 743.614 51.1167Z" fill="white"/>
<path d="M866.285 28.6852C866.862 28.6852 867.329 28.2176 867.329 27.6408C867.329 27.0641 866.862 26.5965 866.285 26.5965C865.709 26.5965 865.241 27.0641 865.241 27.6408C865.241 28.2176 865.709 28.6852 866.285 28.6852Z" fill="white"/>
<path d="M554.6 116.65C555.176 116.65 555.644 116.183 555.644 115.606C555.644 115.029 555.176 114.561 554.6 114.561C554.023 114.561 553.556 115.029 553.556 115.606C553.556 116.183 554.023 116.65 554.6 116.65Z" fill="white"/>
<path d="M621.542 141.566C622.119 141.566 622.586 141.098 622.586 140.522C622.586 139.945 622.119 139.477 621.542 139.477C620.966 139.477 620.498 139.945 620.498 140.522C620.498 141.098 620.966 141.566 621.542 141.566Z" fill="white"/>
<path d="M1199.63 37.6331C1200.21 37.6331 1200.68 37.1655 1200.68 36.5887C1200.68 36.012 1200.21 35.5444 1199.63 35.5444C1199.06 35.5444 1198.59 36.012 1198.59 36.5887C1198.59 37.1655 1199.06 37.6331 1199.63 37.6331Z" fill="white"/>
<path d="M1251.02 70.6563C1251.59 70.6563 1252.06 70.1887 1252.06 69.6119C1252.06 69.0352 1251.59 68.5676 1251.02 68.5676C1250.44 68.5676 1249.97 69.0352 1249.97 69.6119C1249.97 70.1887 1250.44 70.6563 1251.02 70.6563Z" fill="white"/>
<path d="M1221.73 12.9028C1222.29 13.014 1222.66 13.564 1222.55 14.1325C1222.44 14.701 1221.89 15.0656 1221.32 14.9544C1220.75 14.8431 1220.39 14.2932 1220.5 13.7246C1220.61 13.1561 1221.16 12.7915 1221.73 12.9028Z" fill="white"/>
<path d="M481.102 136.097C481.679 136.097 482.146 135.629 482.146 135.053C482.146 134.476 481.679 134.008 481.102 134.008C480.525 134.008 480.058 134.476 480.058 135.053C480.058 135.629 480.525 136.097 481.102 136.097Z" fill="white"/>
<path d="M1228.18 84.6775C1227.82 86.7291 1225.87 88.101 1223.81 87.7364C1221.76 87.378 1220.39 85.4252 1220.76 83.3736C1221.11 81.3221 1223.07 79.9502 1225.12 80.3148C1227.17 80.6732 1228.54 82.6259 1228.18 84.6775Z" fill="white"/>
<path d="M1357.04 11.154C1358.08 11.154 1358.93 10.3101 1358.93 9.26923C1358.93 8.22832 1358.08 7.38449 1357.04 7.38449C1356 7.38449 1355.16 8.22832 1355.16 9.26923C1355.16 10.3101 1356 11.154 1357.04 11.154Z" fill="white"/>
<path d="M1310.9 101.461C1310.9 102.499 1310.06 103.346 1309.02 103.346C1307.98 103.346 1307.14 102.499 1307.14 101.461C1307.14 100.423 1307.98 99.5762 1309.02 99.5762C1310.06 99.5762 1310.9 100.423 1310.9 101.461Z" fill="white"/>
<path d="M1395.54 32.4979C1396.11 32.4979 1396.58 32.0303 1396.58 31.4536C1396.58 30.8768 1396.11 30.4092 1395.54 30.4092C1394.96 30.4092 1394.49 30.8768 1394.49 31.4536C1394.49 32.0303 1394.96 32.4979 1395.54 32.4979Z" fill="white"/>
<path d="M1417.64 7.76144C1418.2 7.87268 1418.57 8.42265 1418.46 8.99116C1418.35 9.55968 1417.8 9.92426 1417.23 9.81303C1416.66 9.7018 1416.29 9.15183 1416.41 8.58332C1416.52 8.0148 1417.07 7.65021 1417.64 7.76144Z" fill="white"/>
<path d="M959.3 35.8101C959.3 36.8483 958.454 37.6949 957.416 37.6949C956.378 37.6949 955.532 36.8483 955.532 35.8101C955.532 34.772 956.378 33.9254 957.416 33.9254C958.454 33.9254 959.3 34.772 959.3 35.8101Z" fill="white"/>
<path d="M902.558 156.279C903.135 156.279 903.603 155.812 903.603 155.235C903.603 154.658 903.135 154.191 902.558 154.191C901.982 154.191 901.514 154.658 901.514 155.235C901.514 155.812 901.982 156.279 902.558 156.279Z" fill="white"/>
<path d="M1053.27 24.2977C1053.84 24.2977 1054.31 23.8302 1054.31 23.2534C1054.31 22.6766 1053.84 22.2091 1053.27 22.2091C1052.69 22.2091 1052.22 22.6766 1052.22 23.2534C1052.22 23.8302 1052.69 24.2977 1053.27 24.2977Z" fill="white"/>
<path d="M1016.53 65.5829C1017.11 65.5829 1017.57 65.1153 1017.57 64.5386C1017.57 63.9618 1017.11 63.4942 1016.53 63.4942C1015.95 63.4942 1015.49 63.9618 1015.49 64.5386C1015.49 65.1153 1015.95 65.5829 1016.53 65.5829Z" fill="white"/>
<path d="M770.576 30.6008C770.008 30.6873 769.477 30.2918 769.39 29.7233C769.304 29.1548 769.699 28.6234 770.268 28.5369C770.836 28.4504 771.367 28.8458 771.454 29.4144C771.54 29.9829 771.145 30.5143 770.576 30.6008Z" fill="white"/>
<path d="M910.436 102.678C910.436 103.717 909.589 104.563 908.551 104.563C907.513 104.563 906.667 103.717 906.667 102.678C906.667 101.64 907.513 100.794 908.551 100.794C909.589 100.794 910.436 101.64 910.436 102.678Z" fill="white"/>
<path d="M1192.09 145.576C1192.09 147.659 1190.41 149.346 1188.33 149.346C1186.24 149.346 1184.56 147.659 1184.56 145.576C1184.56 143.494 1186.24 141.807 1188.33 141.807C1190.41 141.807 1192.09 143.494 1192.09 145.576Z" fill="white"/>
<path d="M1156.22 36.5146C1156.22 37.5527 1155.38 38.3993 1154.34 38.3993C1153.3 38.3993 1152.45 37.5527 1152.45 36.5146C1152.45 35.4764 1153.3 34.6299 1154.34 34.6299C1155.38 34.6299 1156.22 35.4764 1156.22 36.5146Z" fill="white"/>
<path d="M1275.71 173.1C1275.71 174.138 1274.87 174.985 1273.83 174.985C1272.79 174.985 1271.94 174.138 1271.94 173.1C1271.94 172.062 1272.79 171.215 1273.83 171.215C1274.87 171.215 1275.71 172.062 1275.71 173.1Z" fill="white"/>
<path d="M1064.47 124.517C1065.52 124.517 1066.36 123.673 1066.36 122.632C1066.36 121.591 1065.52 120.747 1064.47 120.747C1063.43 120.747 1062.59 121.591 1062.59 122.632C1062.59 123.673 1063.43 124.517 1064.47 124.517Z" fill="white"/>
<path d="M848.195 57.5001C849.236 57.5001 850.08 56.6563 850.08 55.6154C850.08 54.5745 849.236 53.7307 848.195 53.7307C847.154 53.7307 846.311 54.5745 846.311 55.6154C846.311 56.6563 847.154 57.5001 848.195 57.5001Z" fill="white"/>
<path d="M1223.38 178.297C1223.96 178.297 1224.43 177.829 1224.43 177.252C1224.43 176.676 1223.96 176.208 1223.38 176.208C1222.81 176.208 1222.34 176.676 1222.34 177.252C1222.34 177.829 1222.81 178.297 1223.38 178.297Z" fill="white"/>
<path d="M1182.94 126.197C1183.52 126.197 1183.99 125.73 1183.99 125.153C1183.99 124.576 1183.52 124.109 1182.94 124.109C1182.37 124.109 1181.9 124.576 1181.9 125.153C1181.9 125.73 1182.37 126.197 1182.94 126.197Z" fill="white"/>
<path d="M1327.17 94.3422C1327.75 94.3422 1328.22 93.8746 1328.22 93.2979C1328.22 92.7211 1327.75 92.2535 1327.17 92.2535C1326.6 92.2535 1326.13 92.7211 1326.13 93.2979C1326.13 93.8746 1326.6 94.3422 1327.17 94.3422Z" fill="white"/>
<path d="M1015.49 182.307C1016.07 182.307 1016.54 181.84 1016.54 181.263C1016.54 180.686 1016.07 180.219 1015.49 180.219C1014.92 180.219 1014.45 180.686 1014.45 181.263C1014.45 181.84 1014.92 182.307 1015.49 182.307Z" fill="white"/>
<path d="M941.995 201.754C942.572 201.754 943.039 201.286 943.039 200.71C943.039 200.133 942.572 199.665 941.995 199.665C941.418 199.665 940.951 200.133 940.951 200.71C940.951 201.286 941.418 201.754 941.995 201.754Z" fill="white"/>
<path d="M958.386 9.2198C958.963 9.2198 959.43 8.75224 959.43 8.17547C959.43 7.5987 958.963 7.13113 958.386 7.13113C957.809 7.13113 957.342 7.5987 957.342 8.17547C957.342 8.75224 957.809 9.2198 958.386 9.2198Z" fill="white"/>
</g>
<path fill-rule="evenodd" clip-rule="evenodd" d="M906.531 120.203C899.055 124.819 894.15 125.073 887.483 128.224C879.964 131.796 876.43 138.099 873.6 142.11C872.044 141.696 870.388 141.906 869.041 142.833C867.737 143.735 866.965 145.15 866.786 146.695C862.035 147.999 854.553 148.975 848.362 154.951C843.067 160.067 841.127 164.554 834.176 169.924C833.379 170.535 832.7 171.017 832.7 171.017C832.7 171.017 833.478 170.671 834.387 170.233C837.204 168.799 839.669 167.291 842.394 165.221C845.267 163.04 847.794 160.63 850.945 158.634C854.633 156.316 857.716 155.513 860.206 155.019C864.209 154.221 867.546 154.104 871.098 153.752C871.364 153.857 871.642 153.943 871.92 154.005C871.901 154.129 871.895 154.24 871.914 154.351C872.025 155.915 870.919 157.787 870.209 159.443C870.079 160.512 872.124 160.005 872.909 159.851C877.289 158.337 880.817 155.896 883.758 152.343C884.178 151.663 885.364 149.933 884.314 149.68C882.504 149.766 880.347 150.155 878.914 149.5C878.815 149.451 878.71 149.414 878.593 149.389C878.624 149.148 878.636 148.901 878.636 148.648C880.131 145.583 881.379 142.61 883.436 139.286C884.765 137.141 886.6 134.546 890.072 131.907C893.05 129.67 896.201 128.144 899.253 126.235C902.157 124.418 904.437 122.632 906.766 120.512C907.501 119.814 908.094 119.208 908.094 119.208C908.094 119.208 907.402 119.678 906.544 120.203H906.531Z" fill="#0B0036"/>
<path fill-rule="evenodd" clip-rule="evenodd" d="M543.979 290.213C542.169 289.299 541.533 288.372 540.112 287.439C538.505 286.395 536.837 286.456 535.706 286.382C535.601 286.03 535.36 285.727 535.014 285.573C534.681 285.424 534.31 285.443 533.983 285.591C533.155 284.819 532.067 283.465 530.146 282.971C528.502 282.545 527.384 282.705 525.487 281.989C525.271 281.908 525.092 281.828 525.092 281.828C525.092 281.828 525.253 281.939 525.45 282.063C526.068 282.44 526.661 282.742 527.403 283.033C528.175 283.336 528.96 283.54 529.726 283.917C530.628 284.361 531.153 284.868 531.548 285.301C532.185 285.993 532.611 286.629 533.105 287.284C533.118 287.352 533.13 287.414 533.155 287.476C533.13 287.488 533.105 287.501 533.087 287.513C532.79 287.723 532.29 287.729 531.876 287.791C531.647 287.896 531.993 288.236 532.117 288.372C532.939 289.052 533.847 289.447 534.903 289.596C535.089 289.596 535.571 289.62 535.496 289.385C535.262 289.039 534.928 288.669 534.885 288.304C534.885 288.279 534.879 288.255 534.866 288.23C534.916 288.205 534.965 288.18 535.014 288.149C535.799 288.075 536.534 287.964 537.436 287.97C538.017 287.97 538.752 288.02 539.685 288.384C540.482 288.699 541.162 289.132 541.909 289.503C542.614 289.855 543.244 290.084 543.942 290.288C544.171 290.349 544.356 290.393 544.356 290.393C544.356 290.393 544.183 290.312 543.973 290.207L543.979 290.213Z" fill="#0B0036"/>
<path fill-rule="evenodd" clip-rule="evenodd" d="M642.444 204.479C633.077 201.006 629.42 196.792 621.931 193.022C613.467 188.79 605.324 190.013 599.739 190.285C599.022 188.598 597.681 187.263 595.908 186.713C594.178 186.176 592.368 186.466 590.848 187.393C586.363 184.05 580.265 178.037 570.565 176.659C562.261 175.491 556.855 176.882 547.173 174.404C546.067 174.119 545.153 173.848 545.153 173.848C545.153 173.848 546.006 174.305 547.044 174.812C550.293 176.319 553.37 177.487 557.139 178.476C561.106 179.526 565.041 180.107 569.032 181.529C573.697 183.216 576.576 185.416 578.757 187.288C582.266 190.316 584.695 193.214 587.487 196.149C587.58 196.464 587.691 196.767 587.827 197.058C587.71 197.126 587.598 197.206 587.518 197.286C586.184 198.485 583.725 198.788 581.735 199.307C580.685 199.943 582.563 201.408 583.249 202.014C587.666 204.875 592.319 206.327 597.583 206.488C598.491 206.383 600.869 206.247 600.369 205.128C599.034 203.571 597.187 201.915 596.773 200.178C596.742 200.055 596.705 199.925 596.643 199.808C596.884 199.659 597.113 199.499 597.342 199.326C601.148 198.522 604.688 197.571 609.136 197.095C611.99 196.792 615.611 196.625 620.405 197.886C624.502 198.992 628.073 200.753 631.922 202.15C635.586 203.478 638.786 204.269 642.32 204.875C643.463 205.048 644.421 205.165 644.421 205.165C644.421 205.165 643.519 204.862 642.444 204.473V204.479Z" fill="#0B0036"/>
<path fill-rule="evenodd" clip-rule="evenodd" d="M913.599 265.434C906.272 269.203 901.656 269.092 895.194 271.558C887.903 274.357 884.135 279.993 881.2 283.54C879.767 283.039 878.203 283.119 876.887 283.892C875.596 284.646 874.774 285.906 874.496 287.346C869.955 288.217 862.887 288.594 856.659 293.736C851.334 298.136 849.19 302.202 842.301 306.713C841.516 307.226 840.837 307.633 840.837 307.633C840.837 307.633 841.59 307.368 842.48 307.015C845.205 305.878 847.633 304.649 850.327 302.906C853.169 301.071 855.714 299.007 858.797 297.363C862.418 295.46 865.365 294.928 867.725 294.644C871.531 294.187 874.657 294.323 878.006 294.249C878.253 294.366 878.494 294.465 878.753 294.545C878.729 294.65 878.716 294.768 878.722 294.86C878.722 296.337 877.542 298.006 876.751 299.501C876.56 300.496 878.5 300.162 879.254 300.082C883.455 298.982 886.933 296.955 889.948 293.847C890.387 293.235 891.629 291.715 890.659 291.4C888.96 291.35 886.921 291.554 885.63 290.844C885.537 290.794 885.438 290.745 885.333 290.714C885.376 290.485 885.407 290.257 885.426 290.022C887.045 287.26 888.429 284.578 890.603 281.612C892.006 279.708 893.909 277.41 897.338 275.191C900.285 273.313 903.349 272.114 906.34 270.55C909.188 269.055 911.449 267.553 913.778 265.736C914.52 265.137 915.119 264.618 915.119 264.618C915.119 264.618 914.433 265.001 913.599 265.44V265.434Z" fill="#0B0036"/>
<path d="M605.991 251.573C605.991 251.573 599.757 246.821 595.272 246.049C593.128 245.684 590.267 245.968 587.654 246.432C587.345 246.03 586.981 245.684 586.585 245.431C586.548 244.411 585.893 243.595 585.053 243.558C584.219 243.527 583.502 244.294 583.391 245.307C583.002 245.523 582.625 245.82 582.291 246.178C579.777 245.542 577.027 245.066 574.927 245.264C570.404 245.684 563.836 249.942 563.836 249.942C563.725 250.016 563.75 250.047 563.892 250.01C563.892 250.01 570.966 248.082 574.791 248.928C576.811 249.373 579.196 250.986 580.666 252.105C581.012 254.743 582.588 256.758 584.565 256.832C586.486 256.912 588.173 255.12 588.748 252.617C590.261 251.616 592.955 250.028 595.13 249.719C599.01 249.175 605.917 251.635 605.917 251.635C606.059 251.684 606.09 251.66 605.979 251.573H605.991Z" fill="#0B0036"/>
<defs>
<linearGradient id="paint0_linear_459_596" x1="731.844" y1="911.147" x2="705.645" y2="-340.965" gradientUnits="userSpaceOnUse">
<stop offset="0.2" stop-color="#FDFDFD"/>
<stop offset="0.3" stop-color="#C0BDD5"/>
<stop offset="0.39" stop-color="#8C88B4"/>
<stop offset="0.47" stop-color="#655F9A"/>
<stop offset="0.55" stop-color="#484187"/>
<stop offset="0.62" stop-color="#372F7C"/>
<stop offset="0.67" stop-color="#312978"/>
</linearGradient>
<radialGradient id="paint1_radial_459_596" cx="0" cy="0" r="1" gradientUnits="userSpaceOnUse" gradientTransform="translate(722.867 482) scale(469.227 469.313)">
<stop offset="0.4" stop-color="white" stop-opacity="0.7"/>
<stop offset="0.42" stop-color="white" stop-opacity="0.58"/>
<stop offset="0.44" stop-color="white" stop-opacity="0.41"/>
<stop offset="0.47" stop-color="white" stop-opacity="0.26"/>
<stop offset="0.5" stop-color="white" stop-opacity="0.15"/>
<stop offset="0.53" stop-color="white" stop-opacity="0.07"/>
<stop offset="0.56" stop-color="white" stop-opacity="0.02"/>
<stop offset="0.58" stop-color="white" stop-opacity="0"/>
</radialGradient>
</defs>
</svg>
