<svg width="1446" height="425" viewBox="0 0 1446 425" fill="none" xmlns="http://www.w3.org/2000/svg">
<path d="M0 87.532V247.062V425H1445.73V231.854L1434.66 222.325C1423.66 212.864 1408.6 206.66 1392.15 204.806L1318.74 196.538L1308.46 195.383L1287.14 192.979C1272.1 191.286 1257.81 186.954 1245.37 180.323L1227.58 170.838L1227 170.522L1226.72 170.374L1217.12 165.251L1094.4 99.8168C1089 96.9372 1081.64 97.4563 1077.03 101.034L1034 134.453C1028.31 138.877 1018.77 138.47 1013.76 133.588L1000.57 120.728C998.131 118.355 994.437 116.922 990.476 116.798L908.904 114.376C905.271 114.271 901.737 115.278 899.105 117.175L881.435 129.923C877.394 132.84 871.395 133.557 866.359 131.734L859.65 129.299C854.831 127.55 849.109 128.131 845.063 130.776L790.162 166.667C781.209 172.518 768.358 173.439 758.121 168.965L675.553 132.896C659.508 125.882 641.684 121.538 623.26 120.141L555.743 115.037C519.791 112.312 485.6 101.906 457.136 85.0293L436.853 72.9979C420.554 63.3331 400.462 58.0806 379.771 58.0806H282.283C269.617 58.0806 257.341 54.756 247.542 48.6692C241.808 45.1098 235.383 42.3044 228.562 40.3393C228.136 40.2157 227.709 40.0983 227.277 39.9809C219.962 38.0034 212.214 36.9653 204.337 36.9653H153.143C136.64 36.9653 120.608 41.1241 107.559 48.7743C105.149 50.1832 102.246 50.9062 99.3232 50.9062C97.1669 50.9062 94.9983 50.5107 93.0213 49.7136C91.0442 48.9164 88.8756 48.5209 86.7132 48.5209C84.248 48.5209 81.789 49.0338 79.6204 50.0534L6.98772 84.2383L0 87.532Z" fill="#282469"/>
<path fill-rule="evenodd" clip-rule="evenodd" d="M914.798 117.045C914.742 117.552 914.828 117.886 914.977 118.139H915.156C915.23 118.658 914.328 118.015 914.612 118.794C915.44 118.701 916.151 118.46 917.158 118.578C917.732 118.473 917.794 118.973 918.431 118.794C918.072 119.307 917.226 119.239 916.435 119.227C915.761 119.369 914.625 118.942 914.254 119.443C913.296 119.455 913.537 120.907 912.617 120.969C912.697 122.168 912.635 122.502 912.796 123.806C913.247 123.991 913.772 124.09 914.433 124.022C914.31 124.751 914.736 124.819 915.162 124.893V125.109C914.761 125.171 914.167 125.017 913.815 125.14H939.023C939.085 125.017 939.122 124.862 939.134 124.671C938.615 124.071 938.17 124.794 937.682 124.887C937.738 124.38 937.658 124.053 937.503 123.799C936.749 124.053 936.793 123.342 936.23 123.361C935.724 123.589 935.205 124.448 934.778 123.577C935.65 123.707 935.359 122.446 935.501 122.267C935.705 122.403 937.003 122.452 937.139 121.828C936.91 121.742 936.768 121.55 936.774 121.173C936.817 121.006 936.774 120.741 936.953 120.734C937.12 121.118 937.293 121.495 937.861 121.389C936.823 119.251 934.068 119.838 932.233 118.775C932.814 118.349 933.771 119.023 934.778 118.775C934.877 117.929 933.722 118.584 933.691 117.904C935.087 117.323 936.212 116.427 937.503 115.723C937.651 115.105 937.25 115.161 937.324 114.635C936.607 114.234 936.379 115.513 936.051 114.852C936.237 114.419 936.854 114.505 936.78 113.758C935.656 113.115 934.439 115.272 933.512 114.852C934 114.419 934.877 114.456 934.785 113.325C933.895 112.998 933.518 114.407 933.147 113.98C934.358 111.898 936.823 110.73 938.417 108.53C936.928 107.486 934.908 109.574 932.968 108.53C933.784 108.425 934.785 108.53 934.964 107.659C934.661 106.707 933.475 107.51 932.783 107.442H932.418C932.307 107.43 932.202 107.411 932.239 107.226C932.202 106.979 932.035 106.886 931.875 106.787C931.875 106.429 932.375 106.664 932.418 106.349C933.364 106.176 934.717 106.491 935.143 105.694C935.687 105.551 934.97 105.23 935.143 104.822H935.687C935.934 104.89 936.033 105.131 936.409 105.039V104.167H935.866C934.828 103.871 933.876 104.822 933.141 104.167C934.074 103.617 935.68 103.871 935.866 102.425C934.828 102.276 933.963 103.475 933.141 102.857C933.932 102.647 934.451 102.103 935.137 101.77C935.266 101.176 934.778 101.331 934.772 100.898C935.507 100.614 935.958 100.002 936.409 99.372C935.575 97.8827 937.009 97.5552 937.497 96.103C934.624 97.0917 932.128 101.572 929.323 102.641C929.267 101.559 930.565 102.097 930.596 101.115C929.786 100.657 928.958 101.85 928.05 101.986C928.05 101.77 928.198 101.726 928.236 101.547C930.948 99.8601 933.833 98.3832 935.866 95.8805C935.174 95.3244 934.661 96.5232 933.87 96.5355C933.141 96.4737 932.066 96.5356 931.325 97.1906V96.9743C931.325 96.758 931.473 96.7147 931.504 96.5417C931.269 96.5293 931.251 96.2636 930.96 96.3254C930.46 96.3563 930.021 96.3625 930.417 95.8867C930.979 95.8311 931.442 95.6642 931.868 95.4541C931.875 95.1513 931.782 94.9721 931.683 94.7991C932.863 94.6137 932.77 92.9082 934.043 92.834C934.327 92.0616 933.425 92.7042 933.5 92.179C934.043 92.179 934.117 91.6105 934.587 91.524C934.154 90.6465 934.877 90.9864 934.951 90.2139C934.272 89.769 935.069 89.8184 934.951 88.9039C934 88.7308 933.722 89.6454 932.77 89.9915C932.795 89.7381 933.092 89.4971 932.77 89.3364C932.838 88.6196 933.302 88.3725 933.5 87.8101C934.093 87.1427 934.908 86.7349 934.951 85.4125C934.074 84.8131 933.994 86.222 933.314 86.5C933.32 86.1231 933.172 85.9377 932.95 85.845C932.35 86.4382 932.344 87.7359 931.677 88.2427C931.442 88.255 931.424 88.5208 931.133 88.459C931.59 87.841 931.918 87.0747 932.221 86.2776C932.851 85.5051 933.926 85.2765 934.037 83.8799C933.042 84.1209 933.036 84.226 932.041 84.3187V83.4474C932.035 83.1508 932.128 82.9716 932.227 82.7923C932.567 82.3783 932.245 82.2424 932.227 81.7048C931.732 81.5441 931.862 82.1373 931.498 82.1373C931.022 82.3598 930.886 83.0025 930.41 83.2249C930.46 82.2795 929.706 83.1322 929.687 83.4412C929.434 83.435 929.286 83.5463 929.144 83.6575C930.083 81.7357 930.676 80.7222 931.504 78.6459C930.478 78.4297 930.497 79.4678 929.867 79.7335C929.823 79.5667 929.718 79.4801 929.502 79.5172C930.318 78.7263 929.23 78.8375 928.958 78.2072C929.558 77.6757 929.267 76.8291 928.779 76.4646C929.101 76.4151 929.193 76.0876 929.144 75.5933H928.779C929.274 75.0248 929.026 74.9259 928.779 74.2832C929.366 74.036 929.718 73.5169 929.867 72.7569C929.311 72.5962 929.521 73.3563 928.958 73.1894C928.884 72.6642 929.292 72.7198 929.138 72.1018C928.927 72.0709 928.625 72.1389 928.594 71.8856C928.594 71.453 929.088 71.6075 928.952 71.0142C928.032 70.5013 928.952 69.834 928.594 69.0492C927.908 68.6228 927.976 70.1677 927.686 69.4879C928.05 68.6784 927.5 68.1161 927.865 67.3066C927.278 67.2757 926.289 67.0285 925.869 66.219V65.3477C925.313 64.7792 925.325 63.5309 925.325 62.295C924.04 62.9315 924.176 65.2735 923.874 67.0903C923.287 66.3796 923.169 67.3498 922.965 67.7453C922.953 67.1088 922.897 66.5156 922.236 66.6577C922.323 68.666 923.515 69.3396 923.874 71.0142C924.059 71.3047 924.053 71.8176 924.238 72.108C923.787 72.5282 923.491 71.7744 923.151 72.3243C922.644 71.9845 922.712 70.9586 921.878 71.0142C922.175 73.004 922.44 73.9248 923.33 75.377C922.829 75.2843 923.157 76.1927 922.786 76.2483C922.051 75.9702 921.168 75.8651 920.605 75.377C920.34 76.9713 921.39 78.7695 922.601 79.301C923.219 79.5049 923.559 80.0425 924.053 80.3886C923.979 80.6605 923.818 80.8335 923.509 80.8273H921.872C921.668 80.8705 921.588 81.0683 921.507 81.2598C920.747 80.4627 920.346 82.5823 920.778 83.2249C920.803 83.7687 920.815 84.2816 920.414 84.3187C919.512 84.2631 918.641 83.676 917.868 84.0962C917.683 84.9737 918.152 85.0664 918.412 85.4063C917.016 87.1983 921.032 87.9214 920.772 88.2365C919.407 89.0831 917.979 88.0017 916.41 88.6752C916.626 90.9555 919.691 89.8246 920.408 91.5116C920.018 92.352 918.82 92.2223 918.227 92.8217C918.375 93.5138 918.906 93.7486 918.956 94.5643C918.43 94.3295 917.603 94.7991 918.227 95.2193V95.4356H917.862C917.683 96.1463 917.837 96.3873 917.139 96.7395C917.269 97.722 917.077 97.827 917.318 98.4821H917.139C917.04 99.2545 917.782 99.0197 917.683 99.7921C917.664 100.348 917.578 100.83 917.318 101.102C915.848 100.867 915.891 102.437 914.415 102.19C913.846 103.753 915.922 103.611 915.866 105.242C916.447 105.49 916.941 105.842 917.683 105.897C917.745 106.775 916.83 106.472 916.596 106.991C916.225 106.868 916.237 106.336 915.873 106.775C915.236 107.269 916.46 107.733 915.873 108.085C915.446 108.017 915.125 107.659 914.785 108.085C915.224 109.148 914.934 108.925 914.606 109.828C915.156 110.476 916.225 110.501 916.423 111.57C916.107 111.62 916.009 111.947 916.058 112.442C916.305 112.509 916.404 112.751 916.787 112.658C917.325 113.282 916.348 113.059 915.879 113.097H915.7C915.885 113.826 915.131 113.436 914.791 113.535C914.643 113.937 914.557 114.419 914.248 114.623C914.699 114.592 915.001 114.734 915.156 115.062C914.056 115.266 912.11 114.462 912.067 115.933C912.58 116.26 913.531 116.069 913.883 116.588C913.803 117.194 914.872 116.421 914.791 117.027L914.798 117.045ZM930.058 124.022C929.601 124.059 929.49 123.688 929.329 123.367C930.027 123.144 930.843 123.725 930.058 124.022ZM930.423 117.045C930.769 117.453 930.75 116.916 931.331 117.045V117.268C931.065 117.589 930.139 117.589 929.879 117.268C929.91 117.014 930.169 117.033 930.423 117.045ZM929.7 103.314C930.552 103.444 929.119 104.074 928.971 104.402H928.792C928.341 104.377 928.229 103.994 927.883 104.402C927.883 104.18 928.032 104.142 928.063 103.963C928.643 103.79 928.983 103.321 929.7 103.308V103.314ZM928.612 96.9928V97.4316C927.902 97.0855 928.236 98.0001 927.883 98.0866C927.71 97.6417 927.296 97.481 926.975 97.2153C927.21 97.203 927.228 96.9372 927.519 96.999H928.612V96.9928ZM926.975 82.607C927.593 82.3289 927.661 81.3958 928.427 81.2969C928.044 81.9334 927.828 82.7615 926.975 82.8233V82.607ZM926.611 83.4783C926.882 83.6637 926.876 84.1827 926.975 84.572H926.611C926.722 84.1827 926.079 83.6637 926.611 83.4783ZM926.431 91.3263C926.994 91.4869 926.777 90.7268 927.34 90.8875C927.055 91.6352 926.895 92.5374 926.431 93.0688C926.085 92.5374 925.931 91.7774 926.431 91.3263ZM916.62 122.063C917.275 121.606 916.867 120.877 917.349 120.537C919.092 120.617 919.351 121.161 920.803 121.63C919.919 122.316 918.814 122.73 917.714 123.157C917.732 122.335 916.806 122.65 916.626 122.069L916.62 122.063ZM922.613 122.063C922.181 122.706 922.156 123.836 921.161 123.806C921.822 123.163 921.254 122.891 920.797 122.496C921.421 122.304 921.927 121.964 922.434 121.624C922.576 121.674 922.644 121.803 922.613 122.063ZM925.159 109.203C923.565 109.228 922.039 109.166 920.797 108.765C921.34 108.987 921.118 108.277 921.161 107.893H920.982V107.677H922.613C922.978 107.313 922.842 107.696 923.342 107.677C923.287 107.974 923.083 108.091 923.163 108.548C924.047 108.882 923.707 107.751 924.071 107.461H925.165V109.203H925.159ZM923.732 74.5304C923.639 74.3573 923.546 74.1843 923.466 74.0113C923.546 74.1843 923.633 74.3573 923.732 74.5304C923.954 74.9259 924.213 75.3275 924.467 75.7416C924.207 75.3275 923.948 74.9259 923.732 74.5304ZM924.615 88.9286C924.504 89.4971 924.689 89.7134 925.159 89.5836V90.0162C924.603 90.1768 924.498 89.7937 924.065 89.7999C923.905 89.1016 924.343 89.114 924.609 88.9286H924.615ZM923.886 102.876C924.3 102.066 924.689 101.226 924.973 100.262C925.387 100.565 925.041 101.782 925.153 102.443C924.436 102.53 924.374 103.401 923.701 103.531C923.089 103.463 922.459 103.419 922.063 103.092C922.428 103.092 922.298 102.499 922.792 102.659C923.219 102.659 923.324 103.036 923.88 102.876H923.886ZM922.249 88.2736C922.879 88.3168 923.058 88.9039 923.336 89.3611V89.5774C923.157 89.0707 922.348 89.3117 922.063 88.9224C922.669 89.0707 922.354 88.4713 922.249 88.2674V88.2736ZM921.705 89.7999C922.292 90.183 922.453 91.0853 922.613 91.9813C921.94 91.5487 921.155 91.2583 920.982 90.2387C921.303 89.6887 921.279 90.0842 921.705 89.8061V89.7999ZM921.705 102.443C921.73 102.987 922.051 103.123 921.526 103.314H921.347C920.964 103.043 920.661 102.678 920.438 102.227C921.013 101.93 921.359 102.468 921.711 102.443H921.705ZM920.253 116.829C920.593 117.076 921.606 116.675 922.434 116.829V117.268C921.668 117.218 921.26 117.601 920.618 117.706C920.13 117.991 919.654 118.294 919.166 118.578C919.407 118.034 918.449 117.898 918.987 117.706C919.444 117.453 920.235 117.601 920.259 116.835L920.253 116.829ZM919.709 102.659C919.709 102.876 919.858 102.919 919.895 103.092C920.006 103.296 920.321 103.895 919.709 103.747C919.58 103.098 918.665 103.401 918.622 102.659H919.709ZM918.257 118.139C917.701 117.978 917.72 118.516 917.17 118.355C916.731 118.219 915.854 118.627 915.718 118.139C916.688 118.423 917.726 117.657 918.257 118.139Z" fill="#282469"/>
<path fill-rule="evenodd" clip-rule="evenodd" d="M931.065 132.735C931.01 133.242 931.096 133.575 931.244 133.829H931.424C931.498 134.348 930.596 133.705 930.88 134.484C931.708 134.391 932.418 134.15 933.425 134.268C934 134.162 934.062 134.663 934.698 134.484C934.34 134.997 933.493 134.929 932.703 134.916C932.029 135.058 930.892 134.632 930.522 135.133C929.564 135.145 929.805 136.597 928.884 136.659C928.965 137.858 928.903 138.191 929.063 139.495C929.514 139.681 930.04 139.78 930.701 139.712C930.577 140.441 931.003 140.509 931.43 140.583V140.799C931.028 140.861 930.435 140.707 930.083 140.83H955.291C955.352 140.707 955.389 140.552 955.402 140.36C954.883 139.761 954.438 140.484 953.95 140.577C954.005 140.07 953.925 139.743 953.771 139.489C953.017 139.743 953.06 139.032 952.498 139.05C951.991 139.279 951.472 140.138 951.046 139.267C951.917 139.396 951.627 138.136 951.769 137.957C951.973 138.093 953.27 138.142 953.406 137.518C953.178 137.431 953.036 137.24 953.042 136.863C953.085 136.696 953.042 136.43 953.221 136.424C953.388 136.807 953.561 137.184 954.129 137.079C953.091 134.941 950.336 135.528 948.501 134.465C949.081 134.039 950.039 134.712 951.046 134.465C951.145 133.619 949.99 134.274 949.959 133.594C951.355 133.013 952.479 132.117 953.771 131.413C953.919 130.795 953.517 130.85 953.592 130.325C952.875 129.923 952.646 131.202 952.319 130.541C952.504 130.109 953.122 130.195 953.048 129.447C951.923 128.805 950.706 130.961 949.78 130.541C950.268 130.109 951.145 130.146 951.052 129.015C950.163 128.687 949.786 130.096 949.415 129.67C950.626 127.587 953.091 126.42 954.685 124.22C953.196 123.175 951.176 125.264 949.236 124.22C950.051 124.115 951.052 124.22 951.231 123.348C950.929 122.397 949.742 123.2 949.05 123.132H948.686C948.575 123.12 948.47 123.101 948.507 122.916C948.47 122.669 948.303 122.576 948.142 122.477C948.142 122.119 948.643 122.353 948.686 122.038C949.631 121.865 950.984 122.18 951.411 121.383C951.954 121.241 951.238 120.92 951.411 120.512H951.954C952.201 120.58 952.3 120.821 952.677 120.728V119.857H952.133C951.095 119.56 950.144 120.512 949.409 119.857C950.342 119.307 951.948 119.56 952.133 118.114C951.095 117.966 950.231 119.165 949.409 118.547C950.2 118.337 950.719 117.793 951.404 117.459C951.534 116.866 951.046 117.021 951.04 116.588C951.775 116.304 952.226 115.692 952.677 115.062C951.843 113.572 953.276 113.245 953.765 111.793C950.892 112.781 948.396 117.262 945.591 118.331C945.535 117.249 946.832 117.787 946.863 116.804C946.054 116.347 945.226 117.54 944.318 117.676C944.318 117.459 944.466 117.416 944.503 117.237C947.215 115.55 950.101 114.073 952.133 111.57C951.441 111.014 950.929 112.213 950.138 112.225C949.409 112.163 948.334 112.225 947.592 112.88V112.664C947.592 112.448 947.741 112.404 947.772 112.231C947.537 112.219 947.518 111.953 947.228 112.015C946.727 112.046 946.289 112.052 946.684 111.576C947.246 111.521 947.71 111.354 948.136 111.144C948.142 110.841 948.05 110.662 947.951 110.489C949.131 110.303 949.038 108.598 950.311 108.524C950.595 107.751 949.693 108.394 949.767 107.869C950.311 107.869 950.385 107.3 950.855 107.214C950.422 106.336 951.145 106.676 951.219 105.904C950.539 105.459 951.336 105.508 951.219 104.594C950.268 104.421 949.99 105.335 949.038 105.681C949.063 105.428 949.359 105.187 949.038 105.026C949.106 104.309 949.569 104.062 949.767 103.5C950.36 102.832 951.176 102.425 951.219 101.102C950.342 100.503 950.261 101.912 949.582 102.19C949.588 101.813 949.44 101.627 949.217 101.535C948.618 102.128 948.612 103.426 947.945 103.932C947.71 103.945 947.691 104.21 947.401 104.149C947.858 103.531 948.186 102.764 948.488 101.967C949.118 101.195 950.193 100.966 950.305 99.5697C949.31 99.8107 949.304 99.9157 948.309 100.008V99.1371C948.303 98.8405 948.396 98.6613 948.494 98.4821C948.834 98.068 948.513 97.9321 948.494 97.3945C948 97.2338 948.13 97.8271 947.765 97.8271C947.29 98.0495 947.154 98.6922 946.678 98.9147C946.727 97.9692 945.974 98.822 945.955 99.131C945.702 99.1248 945.553 99.236 945.411 99.3472C946.35 97.4254 946.944 96.412 947.772 94.3357C946.746 94.1194 946.764 95.1575 946.134 95.4233C946.091 95.2564 945.986 95.1699 945.77 95.207C946.585 94.416 945.498 94.5272 945.226 93.8969C945.825 93.3654 945.535 92.5189 945.047 92.1543C945.368 92.1048 945.461 91.7774 945.411 91.283H945.047C945.541 90.7145 945.294 90.6156 945.047 89.9729C945.634 89.7258 945.986 89.2067 946.134 88.4466C945.578 88.2859 945.788 89.046 945.226 88.8792C945.152 88.3539 945.56 88.4095 945.405 87.7916C945.195 87.7607 944.892 87.8287 944.862 87.5753C944.862 87.1427 945.356 87.2972 945.22 86.704C944.299 86.1911 945.22 85.5237 944.862 84.7389C944.176 84.3125 944.244 85.8574 943.953 85.1777C944.318 84.3681 943.768 83.8058 944.132 82.9963C943.546 82.9654 942.557 82.7182 942.137 81.9087V81.0374C941.581 80.4689 941.593 79.2206 941.593 77.9847C940.308 78.6212 940.444 80.9632 940.141 82.78C939.554 82.0694 939.437 83.0396 939.233 83.435C939.221 82.7986 939.165 82.2053 938.504 82.3474C938.591 84.3558 939.783 85.0293 940.141 86.704C940.327 86.9944 940.32 87.5073 940.506 87.7978C940.055 88.218 939.758 87.464 939.418 88.014C938.912 87.6741 938.98 86.6484 938.146 86.704C938.442 88.6938 938.708 89.6145 939.598 91.0667C939.097 90.974 939.425 91.8824 939.054 91.938C938.319 91.6599 937.435 91.5549 936.873 91.0667C936.607 92.661 937.658 94.4592 938.869 94.9906C939.486 95.1946 939.826 95.7322 940.32 96.0782C940.246 96.3501 940.086 96.5232 939.777 96.517H938.14C937.936 96.5603 937.855 96.758 937.775 96.9496C937.015 96.1524 936.613 98.272 937.046 98.9147C937.071 99.4585 937.083 99.9713 936.681 100.008C935.779 99.9528 934.908 99.3657 934.136 99.7859C933.951 100.663 934.42 100.756 934.68 101.096C933.283 102.888 937.299 103.611 937.04 103.926C935.674 104.773 934.247 103.691 932.678 104.365C932.894 106.645 935.959 105.514 936.675 107.201C936.286 108.042 935.087 107.912 934.494 108.511C934.643 109.203 935.174 109.438 935.223 110.254C934.698 110.019 933.87 110.489 934.494 110.909V111.125H934.13C933.951 111.836 934.105 112.077 933.407 112.429C933.537 113.412 933.345 113.517 933.586 114.172H933.407C933.308 114.944 934.049 114.709 933.951 115.482C933.932 116.038 933.846 116.52 933.586 116.792C932.116 116.557 932.159 118.127 930.682 117.879C930.114 119.443 932.19 119.301 932.134 120.932C932.715 121.179 933.209 121.532 933.951 121.587C934.012 122.465 933.098 122.162 932.863 122.681C932.492 122.557 932.505 122.026 932.14 122.465C931.504 122.959 932.727 123.423 932.14 123.775C931.714 123.707 931.393 123.348 931.053 123.775C931.492 124.838 931.201 124.615 930.874 125.517C931.424 126.166 932.492 126.191 932.69 127.26C932.375 127.309 932.276 127.637 932.326 128.131C932.573 128.199 932.672 128.44 933.055 128.348C933.592 128.972 932.616 128.749 932.146 128.786H931.967C932.153 129.515 931.399 129.126 931.059 129.225C930.911 129.627 930.824 130.109 930.515 130.313C930.966 130.282 931.269 130.424 931.424 130.751C930.324 130.955 928.378 130.152 928.334 131.623C928.847 131.95 929.799 131.759 930.151 132.278C930.071 132.883 931.139 132.111 931.059 132.716L931.065 132.735ZM946.326 139.712C945.869 139.749 945.757 139.378 945.597 139.057C946.295 138.834 947.11 139.415 946.326 139.712ZM946.69 132.735C947.036 133.143 947.018 132.605 947.599 132.735V132.957C947.333 133.279 946.406 133.279 946.147 132.957C946.178 132.704 946.437 132.723 946.69 132.735ZM945.967 119.004C946.82 119.134 945.387 119.764 945.238 120.092H945.059C944.608 120.067 944.497 119.684 944.151 120.092C944.151 119.869 944.299 119.832 944.33 119.653C944.911 119.48 945.251 119.01 945.967 118.998V119.004ZM944.88 112.683V113.121C944.17 112.775 944.503 113.69 944.151 113.776C943.978 113.331 943.564 113.171 943.243 112.905C943.478 112.893 943.496 112.627 943.786 112.689H944.88V112.683ZM943.243 98.2967C943.861 98.0187 943.929 97.0855 944.695 96.9866C944.312 97.6231 944.095 98.4512 943.243 98.513V98.2967ZM942.878 99.168C943.15 99.3534 943.144 99.8725 943.243 100.262H942.878C942.989 99.8725 942.347 99.3534 942.878 99.168ZM942.699 107.016C943.261 107.177 943.045 106.417 943.607 106.577C943.323 107.325 943.163 108.227 942.699 108.759C942.353 108.227 942.199 107.467 942.699 107.016ZM932.888 137.753C933.543 137.295 933.135 136.566 933.617 136.226C935.359 136.307 935.619 136.85 937.071 137.32C936.187 138.006 935.081 138.42 933.981 138.847C934 138.025 933.073 138.34 932.894 137.759L932.888 137.753ZM938.881 137.753C938.448 138.395 938.424 139.526 937.429 139.495C938.09 138.853 937.522 138.581 937.064 138.185C937.688 137.994 938.195 137.654 938.702 137.314C938.844 137.363 938.912 137.493 938.881 137.753ZM941.426 124.893C939.832 124.918 938.306 124.856 937.064 124.454C937.608 124.677 937.386 123.966 937.429 123.583H937.25V123.367H938.881C939.245 123.002 939.11 123.385 939.61 123.367C939.554 123.663 939.35 123.781 939.431 124.238C940.314 124.572 939.974 123.441 940.339 123.151H941.433V124.893H941.426ZM939.999 90.2201C939.906 90.0471 939.814 89.8741 939.734 89.701C939.814 89.8741 939.9 90.0471 939.999 90.2201C940.222 90.6156 940.481 91.0173 940.734 91.4313C940.475 91.0173 940.215 90.6156 939.999 90.2201ZM940.883 104.618C940.771 105.187 940.957 105.403 941.426 105.273V105.706C940.87 105.867 940.765 105.483 940.333 105.49C940.172 104.791 940.611 104.804 940.876 104.618H940.883ZM940.154 118.565C940.568 117.756 940.957 116.915 941.241 115.951C941.655 116.254 941.309 117.472 941.42 118.133C940.703 118.219 940.642 119.091 939.968 119.22C939.357 119.152 938.726 119.109 938.331 118.782C938.696 118.782 938.566 118.188 939.06 118.349C939.486 118.349 939.591 118.726 940.147 118.565H940.154ZM938.516 103.963C939.147 104.007 939.326 104.594 939.604 105.051V105.267C939.425 104.76 938.615 105.001 938.331 104.612C938.936 104.76 938.621 104.161 938.516 103.957V103.963ZM937.973 105.49C938.56 105.873 938.72 106.775 938.881 107.671C938.207 107.238 937.423 106.948 937.25 105.928C937.571 105.378 937.546 105.774 937.973 105.496V105.49ZM937.973 118.133C937.997 118.677 938.319 118.813 937.793 119.004H937.614C937.231 118.732 936.929 118.368 936.706 117.917C937.281 117.62 937.627 118.158 937.979 118.133H937.973ZM936.521 132.519C936.861 132.766 937.874 132.364 938.702 132.519V132.957C937.936 132.908 937.528 133.291 936.885 133.396C936.397 133.68 935.921 133.983 935.433 134.268C935.674 133.724 934.717 133.588 935.254 133.396C935.711 133.143 936.502 133.291 936.527 132.525L936.521 132.519ZM935.977 118.349C935.977 118.565 936.125 118.609 936.162 118.782C936.274 118.986 936.589 119.585 935.977 119.437C935.847 118.788 934.933 119.091 934.89 118.349H935.977ZM934.525 133.829C933.969 133.668 933.988 134.206 933.438 134.045C932.999 133.909 932.122 134.317 931.986 133.829C932.956 134.113 933.994 133.347 934.525 133.829Z" fill="#282469"/>
<path d="M385.171 81.8839C384.967 80.6666 383.787 79.8138 383.465 78.6892C382.829 76.4645 385.072 74.0483 384.386 71.5271C384.207 70.8659 383.416 70.3283 383.07 69.7412C382.428 68.6289 381.513 66.8801 380.525 66.0768C379.759 65.7493 378.992 65.4156 378.226 65.0881C377.658 64.5876 377.089 64.0932 376.521 63.5927C375.835 63.0303 375.069 62.6039 374.402 62.0725C373.691 61.609 372.975 61.1518 372.264 60.6883C371.307 60.0147 370.386 59.1372 369.132 58.7109C368.044 58.3463 365.839 59.3165 365.246 58.3277C364.776 57.5368 364.807 53.2297 365.4 51.4067C365.684 50.523 365.771 49.4911 366.117 48.8361C366.494 48.2984 366.877 47.7608 367.254 47.2294C367.878 46.2283 368.563 45.1098 369.169 44.1025C369.632 43.3178 369.712 42.4588 370.108 41.6678C370.503 41.6493 370.639 41.8594 370.855 42.051C370.868 42.051 370.88 42.051 370.893 42.051C370.88 41.6431 370.812 41.3836 370.948 40.9139C371.288 40.9757 371.325 41.1179 371.523 41.2724C371.572 40.951 371.585 40.7038 371.535 40.4752C371.659 40.3516 371.696 40.3022 371.943 40.3269C371.968 40.4814 371.992 40.6359 372.017 40.7904C372.036 40.8027 372.06 40.8213 372.079 40.8336C372.536 40.4505 372.913 39.9747 373.197 39.3629C373.345 39.332 373.426 39.3876 373.599 39.4927C373.679 39.264 373.759 39.0292 373.84 38.8006C373.84 38.7759 373.846 38.7573 373.852 38.7326C373.994 38.8005 374.136 38.8685 374.278 38.9303C374.346 38.2877 374.315 37.4225 374.81 37.163C374.989 37.1074 375.174 37.0518 375.353 36.9961C375.631 36.7119 375.786 36.1248 376.008 35.8406C376.033 35.8406 376.051 35.8468 376.076 35.8529C376.206 35.9889 376.342 36.1248 376.472 36.2546C376.521 36.3164 376.57 36.3844 376.62 36.4462C376.991 35.9765 376.725 35.0434 376.83 34.2524C376.892 34.2154 376.96 34.1783 377.021 34.1412L377.157 34.1598C377.207 34.4255 377.318 34.7344 377.54 34.8766C377.361 34.3266 377.534 33.3626 377.652 32.6334C378.177 32.7817 378.078 33.2328 378.628 33.3626C378.665 32.5716 378.171 32.3492 378.134 31.6942C378.245 31.3296 378.356 30.9588 378.467 30.5942C378.721 29.8032 378.696 29.0617 378.677 28.4005C378.838 28.2584 378.999 28.1224 379.153 27.9803C379.06 27.6157 378.819 26.732 379.104 26.3736C379.104 26.3489 379.11 26.3303 379.116 26.3056C379.419 26.386 379.721 26.4601 380.024 26.5405C379.82 26.1882 379.586 25.9658 379.548 25.4652C379.709 25.3169 379.95 25.2675 380.21 25.2489C380.142 25.0388 379.907 24.8535 379.728 24.7299C379.728 24.7052 379.734 24.6866 379.74 24.6619C379.87 24.5383 379.987 24.4765 380.216 24.4889C380.216 24.4765 380.216 24.4641 380.216 24.4518C380.037 24.0687 379.864 23.6855 379.684 23.2962C379.802 23.2159 379.901 23.1788 380.086 23.1788C380.086 22.6906 379.542 22.3693 379.561 21.7143C379.938 21.5969 380.03 21.3929 380.247 21.084C380.45 21.1025 380.661 21.121 380.864 21.1396C380.846 20.9851 379.981 19.9964 379.826 19.8481C379.913 19.502 380.043 19.4649 380.271 19.4279C380.247 19.1189 379.993 18.8223 379.833 18.5998C379.839 18.5566 379.845 18.5071 379.851 18.4639C379.993 18.4515 380.135 18.433 380.277 18.4206C380.277 18.4082 380.277 18.3959 380.277 18.3835C380.111 17.9571 379.567 17.6544 379.505 17.1971C379.555 16.7521 379.61 16.3072 379.66 15.8623C379.641 15.5224 379.771 15.3185 379.839 14.8489C380.03 13.545 380.222 12.2473 380.636 10.9681C380.673 10.7086 380.71 10.4491 380.747 10.1833C380.895 10.0227 381.05 9.85583 381.198 9.69517C381.235 9.1143 380.772 8.83003 381.007 8.10703C381.532 6.47565 382.156 6.27174 381.643 4.41171C381.353 4.21397 380.834 4.20777 380.42 4.16452C380.5 3.63308 380.593 2.83595 380.383 2.4899C379.969 1.81634 379.159 1.01916 378.418 0.611313C378.362 0.605134 378.307 0.592788 378.245 0.586609C377.608 1.47028 376.972 2.34774 376.33 3.23141C375.909 3.64544 375.489 4.05947 375.069 4.47349C374.618 5.01111 374.371 5.82065 373.864 6.31501C373.092 7.0689 371.906 7.30989 371.164 8.11941C370.201 9.16992 369.811 10.8507 368.903 11.963C367.927 13.1618 366.376 13.5388 365.758 15.1579C366.098 15.5039 366.518 15.7758 367.031 15.9983C366.704 16.4123 366.376 16.8325 366.049 17.2465C365.938 17.5308 365.826 17.815 365.715 18.0993C365.19 19.0139 364.368 19.4526 363.299 19.6256C363.398 19.7677 363.491 19.9099 363.59 20.0458C363.547 20.2003 363.497 20.3548 363.454 20.5155C363.336 20.5155 363.225 20.5031 363.108 20.5031C363.058 20.602 363.009 20.6947 362.96 20.7935L361.854 20.7379C361.872 20.9295 361.977 21.0902 361.885 21.2632C361.563 21.634 360.692 21.5289 360.223 21.6525C360.198 21.6525 360.179 21.6463 360.155 21.6401C360.241 21.8255 360.334 22.0109 360.42 22.2024C360.247 22.3322 359.846 22.2333 359.623 22.4002C359.506 22.567 359.388 22.7401 359.271 22.9069C358.931 23.3024 358.338 23.6979 357.844 23.8833C356.899 24.2417 355.885 24.149 355.057 24.5939C354.415 24.94 353.68 25.2242 353.031 25.5888C351.752 26.3118 350.683 27.2944 349.225 27.8196C348.922 27.9308 347.662 28.141 347.365 28.141C347.069 28.1101 346.772 28.0791 346.47 28.0483C345.753 28.1224 345.036 28.3696 344.252 28.2151C343.38 28.0421 342.268 27.9 341.422 28.0174C339.056 28.3387 337.35 29.7291 335.373 30.588C334.502 30.965 333.464 30.9897 332.611 31.3728C332.173 31.5706 331.92 32.1638 331.493 32.3615C331.376 32.3677 331.258 32.3739 331.141 32.3801C330.863 32.5469 330.579 32.7138 330.301 32.8868C329.837 33.1216 329.3 33.0042 328.88 33.307C328.793 33.3626 328.775 33.4368 328.738 33.5665C328.935 33.7087 329.139 33.857 329.337 33.9991C329.343 34.0238 329.356 34.0485 329.362 34.0732C328.966 34.3266 328.571 34.5861 328.169 34.8395C327.873 35.1423 327.972 35.3648 327.533 35.649C327.545 35.8035 327.558 35.9518 327.57 36.1063C327.409 36.4462 326.927 36.5759 326.637 36.7737C326.167 37.0888 325.636 37.9478 325.117 38.3618C324.722 38.6832 324.444 39.1466 324.085 39.4988C323.233 40.0921 322.38 40.6915 321.528 41.2847C320.409 41.8903 319.013 41.9459 317.66 42.2611C316.832 42.4526 315.368 42.9964 314.293 42.6442C312.952 42.2116 311.562 41.6122 310.258 41.3403C310.172 41.9521 310.085 42.5639 309.993 43.1756C310.215 43.6391 311.068 44.1087 311.568 44.3374C311.432 44.4795 311.296 44.6216 311.16 44.7638C311.16 44.7761 311.16 44.7885 311.16 44.8008C311.562 44.9986 312.031 45.0975 312.34 45.3199C312.272 45.5115 312.204 45.5177 312.087 45.6289C312.439 45.9997 313.273 46.2097 313.903 46.3395C313.798 46.6856 313.415 46.7659 313.211 47.0378C313.199 47.1181 313.187 47.1985 313.174 47.2788C314.441 47.458 315.701 47.6434 316.968 47.8226C317.054 47.94 316.986 48.0636 316.943 48.2366L317.277 48.317C317.302 48.2304 317.326 48.1378 317.351 48.0512C317.672 48.1996 317.87 48.1687 318.241 48.181C318.253 48.4344 318.333 48.5023 318.414 48.6939C319.093 48.6321 319.476 48.0945 320.057 47.9215C320.125 47.9215 320.199 47.9215 320.267 47.9215C320.292 48.1192 320.218 48.2799 320.156 48.4591C320.224 48.4714 320.292 48.4776 320.36 48.49C320.36 48.5827 320.36 48.6754 320.36 48.7681C320.372 48.7681 320.385 48.7681 320.397 48.7681C320.749 48.5888 321.101 48.4035 321.453 48.2243C321.472 48.1563 321.497 48.0945 321.515 48.0265C321.657 47.9524 321.886 48.0574 322.009 47.9956C322.355 47.8102 322.528 47.4147 322.918 47.2603C322.936 47.3097 322.949 47.3592 322.967 47.4086C323.004 47.94 322.448 48.1563 322.615 48.6445C322.615 48.6692 322.609 48.6877 322.603 48.7125C323.115 48.4776 323.912 48.1069 324.221 47.6249C324.456 47.7237 324.543 47.8226 324.858 47.8226C324.907 47.6372 327.002 45.7772 327.07 45.7772L327.119 46.1665C327.181 46.253 327.255 46.2592 327.416 46.2777C327.502 46.0676 327.588 45.8637 327.681 45.6536C327.879 45.4126 328.077 45.1778 328.274 44.9368C328.521 44.807 328.552 44.8997 328.775 45.0789C329.01 44.7329 329.244 44.3806 329.485 44.0346C329.572 44.0593 329.664 44.084 329.751 44.1087C329.714 46.3272 327.496 49.2871 326.408 50.3994C326.408 50.3994 324.302 51.3387 324.283 51.3449C324.388 51.9011 323.937 52.3707 323.968 53.069C324.116 56.8014 321.781 60.3237 320.391 62.9747C320.261 63.2219 319.927 63.2404 319.798 63.4443C319.489 63.9325 319.439 66.3302 319.328 66.9543C318.42 67.4301 317.122 67.2695 316.183 67.7206C316.134 67.8194 316.084 67.9121 316.035 68.011C315.837 68.0851 315.64 68.1655 315.442 68.2396C315.201 68.4806 314.954 68.7278 314.713 68.9688C314.175 69.2901 313.403 69.6176 313.261 70.3221C312.316 70.4828 311.71 71.4777 311.061 72.0585C310.888 72.1389 310.715 72.2192 310.542 72.2934C309.727 73.0596 309.183 73.2944 308.164 73.795C307.274 74.2337 306.539 74.9073 305.433 75.1051C305.124 77.2802 304.809 79.4616 304.5 81.6367C324.246 84.4669 343.998 87.2972 363.738 90.1212C368.508 90.8071 373.284 91.4869 378.053 92.1728C379.202 92.3396 380.352 92.5003 381.501 92.6672C381.729 92.6981 382.675 92.7166 382.718 92.6672C382.953 92.4138 382.508 91.8206 382.477 91.6599C382.428 91.4189 382.749 89.9729 382.86 89.701C383.225 88.8297 383.997 88.3044 384.448 87.359C384.491 86.877 384.541 86.4012 384.584 85.9192C384.812 85.2085 385.251 82.576 385.127 81.8654L385.171 81.8839ZM335.627 54.6447C335.256 54.8857 335.163 55.2256 334.867 55.5779C334.539 55.9672 333.798 56.3874 333.297 56.5357C333.081 56.8385 333.538 58.0744 333.637 58.5626C333.798 59.3721 333.668 60.2372 333.687 61.1394C333.606 61.7079 333.526 62.2764 333.446 62.8388C333.371 63.3578 333.297 63.8831 333.223 64.4022C332.89 65.2241 331.394 65.1622 330.486 65.2611C329.318 65.3909 328.107 65.7802 326.934 65.9656C326.229 66.015 325.525 66.0644 324.821 66.1139C324.252 66.1757 323.838 66.4043 323.159 66.2931C322.813 64.2415 324.45 62.3444 325.253 60.9293C326.297 59.0878 327.422 56.1402 328.787 54.7683C329.942 53.6066 332.018 53.2976 333.557 52.6364C334.107 52.3707 334.657 52.0988 335.206 51.8331C335.491 51.6539 335.769 51.4747 336.053 51.2955C336.158 51.2955 336.263 51.3017 336.368 51.3078C336.263 51.9505 335.528 54.4655 335.645 54.6447H335.627ZM354.644 60.8737C353.155 61.609 351.079 61.331 349.268 61.6337C348.181 61.8191 346.846 62.0478 345.87 62.468C345.376 62.7461 344.882 63.0241 344.394 63.296C342.917 63.2837 341.447 63.2651 339.97 63.2528C339.605 63.2033 339.241 63.1477 338.876 63.0983C338.184 63.1292 337.011 63.7224 336.584 63.5309C336.541 63.5123 336.498 63.4938 336.454 63.4753C336.417 61.8501 336.739 59.5945 337.517 58.4884C338.858 56.5851 341.49 56.3256 343.047 54.6942C343.794 53.9156 344.542 52.828 345.092 51.864C345.302 51.3758 345.512 50.8814 345.722 50.3933C346.006 49.9483 346.29 49.5034 346.575 49.0585C347.063 47.9647 347.359 46.6856 348.045 45.8328C348.959 44.6958 349.874 44.3559 351.258 43.8306C351.338 43.8554 351.412 43.8739 351.493 43.8987C351.511 43.9357 351.53 43.9728 351.548 44.0099C351.437 44.5537 351.06 44.5536 350.887 44.9924C351.425 44.8873 351.771 44.7205 352.549 44.8503C352.598 44.9059 352.648 44.9553 352.697 45.011C352.568 45.2828 352.351 45.289 352.234 45.5671C352.883 45.4559 353.328 45.2025 354.112 45.3508C354.427 46.6609 354.44 48.1378 354.501 49.6765C354.433 50.1276 354.372 50.5848 354.304 51.0359C354.322 51.9814 354.267 53.5016 353.933 54.5953C353.717 55.547 353.494 56.4986 353.278 57.4564C353.698 58.0187 354.996 60.0704 354.637 60.8799L354.644 60.8737ZM362.373 59.2361C362.125 59.8664 359.11 60.5338 358.066 60.3546C357.121 59.1928 357.43 55.7694 358.066 53.7549C358.122 53.2976 358.171 52.8465 358.227 52.3893C358.332 51.3017 358.561 50.2326 358.839 49.3489C359.148 48.3478 359.154 47.2232 359.531 46.4631C359.599 46.4817 359.666 46.5064 359.728 46.5249C359.858 46.6238 359.877 46.7041 359.846 46.9266C360.056 46.8833 360.173 46.7041 360.315 46.5743C360.358 46.5805 360.408 46.5867 360.451 46.5929C360.544 46.8277 360.643 47.0625 360.735 47.2912C360.797 47.3592 360.859 47.4271 360.915 47.4889C360.958 47.2665 361.001 47.0378 361.044 46.8153C361.094 46.7906 361.143 46.7597 361.193 46.735C361.817 46.908 361.52 47.458 361.637 48.0142C361.897 49.2439 362.051 50.7393 362.125 52.1483C362.082 52.5932 362.045 53.0381 362.002 53.483C362.039 54.3543 361.928 55.5284 361.959 56.4615C361.928 56.8508 361.891 57.2401 361.86 57.6295C361.928 58.1053 362.589 58.6429 362.36 59.23L362.373 59.2361Z" fill="#282469"/>
</svg>
